<?xml version="1.0" encoding="UTF-8" standalone="no"?>
<!DOCTYPE svg PUBLIC "-//W3C//DTD SVG 20010904//EN"
"http://www.w3.org/TR/2001/REC-SVG-20010904/DTD/svg10.dtd">
<svg xmlns="http://www.w3.org/2000/svg" xmlns:xml="http://www.w3.org/XML/1998/namespace" xml:space="preserve" width="64" height="64" overflow="visible" viewBox="0 0 117 117">
  <g stroke="#000">
    <path stroke="none" d="M3 60c0 31.43 25.57 57 57 57s57-25.57 57-57S91.43 3 60 3 3 28.57 3 60zm36 0c0-11.58 9.42-21 21-21 11.579 0 21 9.42 21 21 0 11.579-9.421 21-21 21-11.58 0-21-9.421-21-21z" opacity=".2"/>
    <path fill="#633" stroke="none" d="M0 58c0 31.981 26.019 58 58 58s58-26.019 58-58S89.981 0 58 0 0 26.019 0 58zm38 0c0-11.028 8.972-20 20-20s20 8.972 20 20-8.972 20-20 20-20-8.972-20-20z"/>
    <radialGradient id="a" cx="58" cy="58" r="57" fx="58" fy="58" gradientUnits="userSpaceOnUse">
      <stop offset="0" stop-color="#b00000"/>
      <stop offset="1" stop-color="#930"/>
    </radialGradient>
    <path fill="url(#a)" stroke="none" d="M1 58c0 31.43 25.57 57 57 57s57-25.57 57-57S89.43 1 58 1 1 26.57 1 58zm36 0c0-11.58 9.42-21 21-21 11.579 0 21 9.42 21 21 0 11.579-9.421 21-21 21-11.58 0-21-9.421-21-21z"/>
    <radialGradient id="b" cx="58" cy="58" r="54" fx="58" fy="58" gradientUnits="userSpaceOnUse">
      <stop offset="0" stop-color="#fff"/>
      <stop offset=".1847" stop-color="#ff9393"/>
      <stop offset=".427" stop-color="red"/>
      <stop offset="1" stop-color="#cf0000"/>
    </radialGradient>
    <path fill="url(#b)" stroke="none" d="M58 4C28.177 4 4 28.177 4 58s24.177 54 54 54 54-24.177 54-54S87.823 4 58 4zm0 78c-13.233 0-24-10.767-24-24s10.767-24 24-24 24 10.767 24 24-10.767 24-24 24z"/>
    <path fill="#fff" stroke="none" d="M58 15c26.393 0 48.06 20.558 49.864 46.5.08-1.158.136-2.322.136-3.5 0-27.57-22.43-50-50-50S8 30.43 8 58c0 1.178.056 2.342.136 3.5C9.94 35.558 31.607 15 58 15z" opacity=".5"/>
    <path fill="#fff" stroke="none" d="M58 93c15.439 0 28-12.561 28-28 0-1.186-.083-2.353-.227-3.5C84.045 75.292 72.254 86 58 86c-14.253 0-26.045-10.708-27.773-24.5C30.083 62.647 30 63.814 30 65c0 15.439 12.561 28 28 28z" opacity=".4"/>
    <path fill="#fff" stroke="none" d="M58 112c9.838 0 19.053-2.644 26.997-7.24L69.994 78.774C66.463 80.821 62.367 82 58 82s-8.462-1.179-11.994-3.226L31.003 104.76C38.947 109.356 48.162 112 58 112zM58 4c-9.838 0-19.053 2.644-26.997 7.24l15.002 25.985C49.538 35.179 53.633 34 58 34s8.463 1.179 11.994 3.226L84.997 11.24C77.053 6.644 67.838 4 58 4zm24 54c0 4.367-1.179 8.463-3.226 11.994l25.985 15.003C109.356 77.053 112 67.838 112 58s-2.644-19.053-7.24-26.997L78.774 46.006C80.821 49.538 82 53.633 82 58zm-48 0c0-4.367 1.179-8.462 3.226-11.994L11.24 31.003C6.644 38.947 4 48.162 4 58s2.644 19.053 7.24 26.997l25.985-15.003C35.179 66.463 34 62.367 34 58z"/>
    <path fill="#616161" stroke="none" d="M58 28c-13.233 0-24 10.767-24 24 0 1.017.071 2.016.194 3C35.676 43.178 45.783 34 58 34s22.324 9.178 23.806 21c.123-.984.194-1.983.194-3 0-13.233-10.767-24-24-24zm0 78C29.184 106 5.645 83.427 4.087 55 4.033 55.994 4 56.993 4 58c0 29.823 24.177 54 54 54s54-24.177 54-54c0-1.007-.032-2.006-.087-3-1.558 28.427-25.097 51-53.913 51z" opacity=".3"/>
    <path fill="#616161" stroke="none" d="M58 112c29.106 0 52.823-23.032 53.946-51.864-.014-.378-.013-.759-.033-1.136-1.558 28.427-25.097 51-53.913 51-28.816 0-52.355-22.573-53.913-51-.021.377-.019.758-.033 1.136C5.177 88.968 28.893 112 58 112zM34 56c0 .289.018.574.029.86C34.626 44.154 45.149 34 58 34s23.373 10.153 23.971 22.859c.011-.286.029-.57.029-.859 0-13.233-10.767-24-24-24S34 42.767 34 56z" opacity=".3"/>
  </g>
</svg>